<svg width="1920" height="544" viewBox="0 0 1920 544" fill="none" xmlns="http://www.w3.org/2000/svg">
<g clip-path="url(#clip0_56_99)">
<rect width="1920" height="544" rx="50" fill="#1E6F9F"/>
<g opacity="0.3" filter="url(#filter0_f_56_99)">
<circle cx="960" cy="1234" r="960" fill="#4EA8DE"/>
</g>
<path d="M289.078 215.625V318H268.617V215.625H289.078ZM314.531 215.625V232.711H243.656V215.625H314.531ZM308.766 282.562V277.43C308.766 271.477 309.469 266.203 310.875 261.609C312.328 257.016 314.391 253.172 317.062 250.078C319.734 246.938 322.945 244.57 326.695 242.977C330.492 241.336 334.734 240.516 339.422 240.516C344.156 240.516 348.398 241.336 352.148 242.977C355.945 244.57 359.18 246.938 361.852 250.078C364.57 253.172 366.656 257.016 368.109 261.609C369.562 266.203 370.289 271.477 370.289 277.43V282.562C370.289 288.469 369.562 293.719 368.109 298.312C366.656 302.906 364.57 306.773 361.852 309.914C359.18 313.055 355.969 315.422 352.219 317.016C348.469 318.609 344.25 319.406 339.562 319.406C334.875 319.406 330.633 318.609 326.836 317.016C323.086 315.422 319.852 313.055 317.133 309.914C314.414 306.773 312.328 302.906 310.875 298.312C309.469 293.719 308.766 288.469 308.766 282.562ZM328.453 277.43V282.562C328.453 286.078 328.688 289.125 329.156 291.703C329.672 294.281 330.398 296.414 331.336 298.102C332.32 299.789 333.492 301.031 334.852 301.828C336.211 302.625 337.781 303.023 339.562 303.023C341.344 303.023 342.938 302.625 344.344 301.828C345.75 301.031 346.898 299.789 347.789 298.102C348.727 296.414 349.406 294.281 349.828 291.703C350.297 289.125 350.531 286.078 350.531 282.562V277.43C350.531 274.008 350.273 271.008 349.758 268.43C349.242 265.805 348.516 263.672 347.578 262.031C346.641 260.344 345.469 259.078 344.062 258.234C342.703 257.344 341.156 256.898 339.422 256.898C337.688 256.898 336.141 257.344 334.781 258.234C333.469 259.078 332.32 260.344 331.336 262.031C330.398 263.672 329.672 265.805 329.156 268.43C328.688 271.008 328.453 274.008 328.453 277.43ZM410.438 318H392.367L392.508 300.984H410.438C415.406 300.984 419.273 300.094 422.039 298.312C424.805 296.531 426.75 293.719 427.875 289.875C429.047 286.031 429.633 280.992 429.633 274.758V258.797C429.633 254.062 429.328 250.055 428.719 246.773C428.109 243.445 427.078 240.773 425.625 238.758C424.172 236.695 422.227 235.172 419.789 234.188C417.352 233.203 414.328 232.711 410.719 232.711H392.016V215.625H410.719C416.625 215.625 421.992 216.586 426.82 218.508C431.648 220.43 435.797 223.242 439.266 226.945C442.734 230.602 445.406 235.125 447.281 240.516C449.156 245.906 450.094 252.047 450.094 258.938V274.758C450.094 281.695 449.156 287.836 447.281 293.18C445.406 298.523 442.734 303.047 439.266 306.75C435.844 310.406 431.695 313.195 426.82 315.117C421.945 317.039 416.484 318 410.438 318ZM404.32 215.625V318H383.719V215.625H404.32ZM461.906 282.562V277.43C461.906 271.477 462.609 266.203 464.016 261.609C465.469 257.016 467.531 253.172 470.203 250.078C472.875 246.938 476.086 244.57 479.836 242.977C483.633 241.336 487.875 240.516 492.562 240.516C497.297 240.516 501.539 241.336 505.289 242.977C509.086 244.57 512.32 246.938 514.992 250.078C517.711 253.172 519.797 257.016 521.25 261.609C522.703 266.203 523.43 271.477 523.43 277.43V282.562C523.43 288.469 522.703 293.719 521.25 298.312C519.797 302.906 517.711 306.773 514.992 309.914C512.32 313.055 509.109 315.422 505.359 317.016C501.609 318.609 497.391 319.406 492.703 319.406C488.016 319.406 483.773 318.609 479.977 317.016C476.227 315.422 472.992 313.055 470.273 309.914C467.555 306.773 465.469 302.906 464.016 298.312C462.609 293.719 461.906 288.469 461.906 282.562ZM481.594 277.43V282.562C481.594 286.078 481.828 289.125 482.297 291.703C482.812 294.281 483.539 296.414 484.477 298.102C485.461 299.789 486.633 301.031 487.992 301.828C489.352 302.625 490.922 303.023 492.703 303.023C494.484 303.023 496.078 302.625 497.484 301.828C498.891 301.031 500.039 299.789 500.93 298.102C501.867 296.414 502.547 294.281 502.969 291.703C503.438 289.125 503.672 286.078 503.672 282.562V277.43C503.672 274.008 503.414 271.008 502.898 268.43C502.383 265.805 501.656 263.672 500.719 262.031C499.781 260.344 498.609 259.078 497.203 258.234C495.844 257.344 494.297 256.898 492.562 256.898C490.828 256.898 489.281 257.344 487.922 258.234C486.609 259.078 485.461 260.344 484.477 262.031C483.539 263.672 482.812 265.805 482.297 268.43C481.828 271.008 481.594 274.008 481.594 277.43ZM626.859 300.984V318H584.32V300.984H626.859ZM590.648 215.625V318H570.047V215.625H590.648ZM658.641 241.922V318H638.883V241.922H658.641ZM637.969 222.234C637.969 219.188 638.93 216.68 640.852 214.711C642.82 212.695 645.445 211.688 648.727 211.688C652.055 211.688 654.68 212.695 656.602 214.711C658.523 216.68 659.484 219.188 659.484 222.234C659.484 225.234 658.5 227.742 656.531 229.758C654.609 231.727 652.031 232.711 648.797 232.711C645.469 232.711 642.82 231.727 640.852 229.758C638.93 227.742 637.969 225.234 637.969 222.234ZM708 297.469C708 296.156 707.555 294.984 706.664 293.953C705.773 292.922 704.367 291.867 702.445 290.789C700.523 289.664 697.969 288.422 694.781 287.062C691.312 285.656 688.242 284.203 685.57 282.703C682.898 281.203 680.625 279.539 678.75 277.711C676.922 275.883 675.539 273.797 674.602 271.453C673.664 269.109 673.195 266.438 673.195 263.438C673.195 260.203 673.781 257.227 674.953 254.508C676.172 251.742 677.906 249.328 680.156 247.266C682.406 245.156 685.148 243.516 688.383 242.344C691.664 241.125 695.344 240.516 699.422 240.516C705.141 240.516 710.039 241.523 714.117 243.539C718.242 245.508 721.406 248.273 723.609 251.836C725.812 255.398 726.914 259.547 726.914 264.281H707.227C707.227 262.594 706.969 261.094 706.453 259.781C705.938 258.422 705.094 257.367 703.922 256.617C702.797 255.867 701.273 255.492 699.352 255.492C697.945 255.492 696.68 255.797 695.555 256.406C694.477 257.016 693.609 257.836 692.953 258.867C692.344 259.852 692.039 261.023 692.039 262.383C692.039 263.414 692.25 264.328 692.672 265.125C693.141 265.922 693.867 266.695 694.852 267.445C695.836 268.195 697.148 268.992 698.789 269.836C700.477 270.633 702.539 271.523 704.977 272.508C710.039 274.383 714.188 276.398 717.422 278.555C720.703 280.711 723.141 283.242 724.734 286.148C726.328 289.008 727.125 292.547 727.125 296.766C727.125 300.141 726.469 303.211 725.156 305.977C723.891 308.742 722.039 311.133 719.602 313.148C717.164 315.164 714.234 316.711 710.812 317.789C707.438 318.867 703.664 319.406 699.492 319.406C693.352 319.406 688.172 318.188 683.953 315.75C679.734 313.312 676.547 310.195 674.391 306.398C672.234 302.555 671.156 298.57 671.156 294.445H689.859C689.953 296.977 690.422 298.969 691.266 300.422C692.156 301.828 693.352 302.812 694.852 303.375C696.352 303.938 698.016 304.219 699.844 304.219C701.672 304.219 703.172 303.984 704.344 303.516C705.562 303 706.477 302.227 707.086 301.195C707.695 300.117 708 298.875 708 297.469ZM772.828 241.922V256.758H734.016V241.922H772.828ZM742.945 223.148H762.562V294.797C762.562 296.906 762.773 298.523 763.195 299.648C763.617 300.773 764.25 301.57 765.094 302.039C765.984 302.461 767.156 302.672 768.609 302.672C769.594 302.672 770.508 302.625 771.352 302.531C772.195 302.391 772.828 302.25 773.25 302.109V317.508C771.703 318.117 770.062 318.586 768.328 318.914C766.641 319.242 764.625 319.406 762.281 319.406C758.344 319.406 754.922 318.656 752.016 317.156C749.156 315.656 746.93 313.266 745.336 309.984C743.742 306.656 742.945 302.297 742.945 296.906V223.148Z" fill="white"/>
<path d="M261.992 435H250.117L250.195 428.867H261.992C266.055 428.867 269.44 428.021 272.148 426.328C274.857 424.609 276.888 422.214 278.242 419.141C279.622 416.042 280.312 412.422 280.312 408.281V404.805C280.312 401.549 279.922 398.659 279.141 396.133C278.359 393.581 277.214 391.432 275.703 389.688C274.193 387.917 272.344 386.576 270.156 385.664C267.995 384.753 265.508 384.297 262.695 384.297H249.883V378.125H262.695C266.419 378.125 269.818 378.75 272.891 380C275.964 381.224 278.607 383.008 280.82 385.352C283.06 387.669 284.779 390.482 285.977 393.789C287.174 397.07 287.773 400.768 287.773 404.883V408.281C287.773 412.396 287.174 416.107 285.977 419.414C284.779 422.695 283.047 425.495 280.781 427.812C278.542 430.13 275.833 431.914 272.656 433.164C269.505 434.388 265.951 435 261.992 435ZM254.141 378.125V435H246.602V378.125H254.141ZM315.547 435.781C312.604 435.781 309.935 435.286 307.539 434.297C305.169 433.281 303.125 431.862 301.406 430.039C299.714 428.216 298.411 426.055 297.5 423.555C296.589 421.055 296.133 418.32 296.133 415.352V413.711C296.133 410.273 296.641 407.214 297.656 404.531C298.672 401.823 300.052 399.531 301.797 397.656C303.542 395.781 305.521 394.362 307.734 393.398C309.948 392.435 312.24 391.953 314.609 391.953C317.63 391.953 320.234 392.474 322.422 393.516C324.635 394.557 326.445 396.016 327.852 397.891C329.258 399.74 330.299 401.927 330.977 404.453C331.654 406.953 331.992 409.688 331.992 412.656V415.898H300.43V410H324.766V409.453C324.661 407.578 324.271 405.755 323.594 403.984C322.943 402.214 321.901 400.755 320.469 399.609C319.036 398.464 317.083 397.891 314.609 397.891C312.969 397.891 311.458 398.242 310.078 398.945C308.698 399.622 307.513 400.638 306.523 401.992C305.534 403.346 304.766 405 304.219 406.953C303.672 408.906 303.398 411.159 303.398 413.711V415.352C303.398 417.357 303.672 419.245 304.219 421.016C304.792 422.76 305.612 424.297 306.68 425.625C307.773 426.953 309.089 427.995 310.625 428.75C312.188 429.505 313.958 429.883 315.938 429.883C318.49 429.883 320.651 429.362 322.422 428.32C324.193 427.279 325.742 425.885 327.07 424.141L331.445 427.617C330.534 428.997 329.375 430.312 327.969 431.562C326.562 432.812 324.831 433.828 322.773 434.609C320.742 435.391 318.333 435.781 315.547 435.781ZM365.039 423.789C365.039 422.747 364.805 421.784 364.336 420.898C363.893 419.987 362.969 419.167 361.562 418.438C360.182 417.682 358.099 417.031 355.312 416.484C352.969 415.99 350.846 415.404 348.945 414.727C347.07 414.049 345.469 413.229 344.141 412.266C342.839 411.302 341.836 410.169 341.133 408.867C340.43 407.565 340.078 406.042 340.078 404.297C340.078 402.63 340.443 401.055 341.172 399.57C341.927 398.086 342.982 396.771 344.336 395.625C345.716 394.479 347.37 393.581 349.297 392.93C351.224 392.279 353.372 391.953 355.742 391.953C359.128 391.953 362.018 392.552 364.414 393.75C366.81 394.948 368.646 396.549 369.922 398.555C371.198 400.534 371.836 402.734 371.836 405.156H364.609C364.609 403.984 364.258 402.852 363.555 401.758C362.878 400.638 361.875 399.714 360.547 398.984C359.245 398.255 357.643 397.891 355.742 397.891C353.737 397.891 352.109 398.203 350.859 398.828C349.635 399.427 348.737 400.195 348.164 401.133C347.617 402.07 347.344 403.06 347.344 404.102C347.344 404.883 347.474 405.586 347.734 406.211C348.021 406.81 348.516 407.37 349.219 407.891C349.922 408.385 350.911 408.854 352.188 409.297C353.464 409.74 355.091 410.182 357.07 410.625C360.534 411.406 363.385 412.344 365.625 413.438C367.865 414.531 369.531 415.872 370.625 417.461C371.719 419.049 372.266 420.977 372.266 423.242C372.266 425.091 371.875 426.784 371.094 428.32C370.339 429.857 369.232 431.185 367.773 432.305C366.341 433.398 364.622 434.258 362.617 434.883C360.638 435.482 358.411 435.781 355.938 435.781C352.214 435.781 349.062 435.117 346.484 433.789C343.906 432.461 341.953 430.742 340.625 428.633C339.297 426.523 338.633 424.297 338.633 421.953H345.898C346.003 423.932 346.576 425.508 347.617 426.68C348.659 427.826 349.935 428.646 351.445 429.141C352.956 429.609 354.453 429.844 355.938 429.844C357.917 429.844 359.57 429.583 360.898 429.062C362.253 428.542 363.281 427.826 363.984 426.914C364.688 426.003 365.039 424.961 365.039 423.789ZM406.68 427.773V406.016C406.68 404.349 406.341 402.904 405.664 401.68C405.013 400.43 404.023 399.466 402.695 398.789C401.367 398.112 399.727 397.773 397.773 397.773C395.951 397.773 394.349 398.086 392.969 398.711C391.615 399.336 390.547 400.156 389.766 401.172C389.01 402.188 388.633 403.281 388.633 404.453H381.406C381.406 402.943 381.797 401.445 382.578 399.961C383.359 398.477 384.479 397.135 385.938 395.938C387.422 394.714 389.193 393.75 391.25 393.047C393.333 392.318 395.651 391.953 398.203 391.953C401.276 391.953 403.984 392.474 406.328 393.516C408.698 394.557 410.547 396.133 411.875 398.242C413.229 400.326 413.906 402.943 413.906 406.094V425.781C413.906 427.188 414.023 428.685 414.258 430.273C414.518 431.862 414.896 433.229 415.391 434.375V435H407.852C407.487 434.167 407.201 433.06 406.992 431.68C406.784 430.273 406.68 428.971 406.68 427.773ZM407.93 409.375L408.008 414.453H400.703C398.646 414.453 396.81 414.622 395.195 414.961C393.581 415.273 392.227 415.755 391.133 416.406C390.039 417.057 389.206 417.878 388.633 418.867C388.06 419.831 387.773 420.964 387.773 422.266C387.773 423.594 388.073 424.805 388.672 425.898C389.271 426.992 390.169 427.865 391.367 428.516C392.591 429.141 394.089 429.453 395.859 429.453C398.073 429.453 400.026 428.984 401.719 428.047C403.411 427.109 404.753 425.964 405.742 424.609C406.758 423.255 407.305 421.94 407.383 420.664L410.469 424.141C410.286 425.234 409.792 426.445 408.984 427.773C408.177 429.102 407.096 430.378 405.742 431.602C404.414 432.799 402.826 433.802 400.977 434.609C399.154 435.391 397.096 435.781 394.805 435.781C391.94 435.781 389.427 435.221 387.266 434.102C385.13 432.982 383.464 431.484 382.266 429.609C381.094 427.708 380.508 425.586 380.508 423.242C380.508 420.977 380.951 418.984 381.836 417.266C382.721 415.521 383.997 414.076 385.664 412.93C387.331 411.758 389.336 410.872 391.68 410.273C394.023 409.674 396.641 409.375 399.531 409.375H407.93ZM434.922 435H427.695V389.062C427.695 385.859 428.32 383.151 429.57 380.938C430.82 378.724 432.604 377.044 434.922 375.898C437.24 374.753 439.987 374.18 443.164 374.18C445.039 374.18 446.875 374.414 448.672 374.883C450.469 375.326 452.318 375.885 454.219 376.562L453.008 382.656C451.81 382.188 450.417 381.745 448.828 381.328C447.266 380.885 445.547 380.664 443.672 380.664C440.573 380.664 438.333 381.367 436.953 382.773C435.599 384.154 434.922 386.25 434.922 389.062V435ZM443.555 392.734V398.281H421.016V392.734H443.555ZM457.773 392.734V435H450.547V392.734H457.773ZM467.734 414.336V413.438C467.734 410.391 468.177 407.565 469.062 404.961C469.948 402.331 471.224 400.052 472.891 398.125C474.557 396.172 476.576 394.661 478.945 393.594C481.315 392.5 483.971 391.953 486.914 391.953C489.883 391.953 492.552 392.5 494.922 393.594C497.318 394.661 499.349 396.172 501.016 398.125C502.708 400.052 503.997 402.331 504.883 404.961C505.768 407.565 506.211 410.391 506.211 413.438V414.336C506.211 417.383 505.768 420.208 504.883 422.812C503.997 425.417 502.708 427.695 501.016 429.648C499.349 431.576 497.331 433.086 494.961 434.18C492.617 435.247 489.961 435.781 486.992 435.781C484.023 435.781 481.354 435.247 478.984 434.18C476.615 433.086 474.583 431.576 472.891 429.648C471.224 427.695 469.948 425.417 469.062 422.812C468.177 420.208 467.734 417.383 467.734 414.336ZM474.961 413.438V414.336C474.961 416.445 475.208 418.438 475.703 420.312C476.198 422.161 476.94 423.802 477.93 425.234C478.945 426.667 480.208 427.799 481.719 428.633C483.229 429.44 484.987 429.844 486.992 429.844C488.971 429.844 490.703 429.44 492.188 428.633C493.698 427.799 494.948 426.667 495.938 425.234C496.927 423.802 497.669 422.161 498.164 420.312C498.685 418.438 498.945 416.445 498.945 414.336V413.438C498.945 411.354 498.685 409.388 498.164 407.539C497.669 405.664 496.914 404.01 495.898 402.578C494.909 401.12 493.659 399.974 492.148 399.141C490.664 398.307 488.919 397.891 486.914 397.891C484.935 397.891 483.19 398.307 481.68 399.141C480.195 399.974 478.945 401.12 477.93 402.578C476.94 404.01 476.198 405.664 475.703 407.539C475.208 409.388 474.961 411.354 474.961 413.438ZM544.297 378.125V435H536.758V378.125H544.297ZM584.297 392.734H590.859V434.102C590.859 437.826 590.104 441.003 588.594 443.633C587.083 446.263 584.974 448.255 582.266 449.609C579.583 450.99 576.484 451.68 572.969 451.68C571.51 451.68 569.792 451.445 567.812 450.977C565.859 450.534 563.932 449.766 562.031 448.672C560.156 447.604 558.581 446.159 557.305 444.336L561.094 440.039C562.865 442.174 564.714 443.659 566.641 444.492C568.594 445.326 570.521 445.742 572.422 445.742C574.714 445.742 576.693 445.312 578.359 444.453C580.026 443.594 581.315 442.318 582.227 440.625C583.164 438.958 583.633 436.901 583.633 434.453V402.031L584.297 392.734ZM555.195 414.336V413.516C555.195 410.286 555.573 407.357 556.328 404.727C557.109 402.07 558.216 399.792 559.648 397.891C561.107 395.99 562.865 394.531 564.922 393.516C566.979 392.474 569.297 391.953 571.875 391.953C574.531 391.953 576.849 392.422 578.828 393.359C580.833 394.271 582.526 395.612 583.906 397.383C585.312 399.128 586.419 401.237 587.227 403.711C588.034 406.185 588.594 408.984 588.906 412.109V415.703C588.62 418.802 588.06 421.589 587.227 424.062C586.419 426.536 585.312 428.646 583.906 430.391C582.526 432.135 580.833 433.477 578.828 434.414C576.823 435.326 574.479 435.781 571.797 435.781C569.271 435.781 566.979 435.247 564.922 434.18C562.891 433.112 561.146 431.615 559.688 429.688C558.229 427.76 557.109 425.495 556.328 422.891C555.573 420.26 555.195 417.409 555.195 414.336ZM562.422 413.516V414.336C562.422 416.445 562.63 418.424 563.047 420.273C563.49 422.122 564.154 423.75 565.039 425.156C565.951 426.562 567.109 427.669 568.516 428.477C569.922 429.258 571.602 429.648 573.555 429.648C575.951 429.648 577.93 429.141 579.492 428.125C581.055 427.109 582.292 425.768 583.203 424.102C584.141 422.435 584.87 420.625 585.391 418.672V409.258C585.104 407.826 584.661 406.445 584.062 405.117C583.49 403.763 582.734 402.565 581.797 401.523C580.885 400.456 579.753 399.609 578.398 398.984C577.044 398.359 575.456 398.047 573.633 398.047C571.654 398.047 569.948 398.464 568.516 399.297C567.109 400.104 565.951 401.224 565.039 402.656C564.154 404.062 563.49 405.703 563.047 407.578C562.63 409.427 562.422 411.406 562.422 413.516ZM609.062 401.758V435H601.836V392.734H608.672L609.062 401.758ZM607.344 412.266L604.336 412.148C604.362 409.258 604.792 406.589 605.625 404.141C606.458 401.667 607.63 399.518 609.141 397.695C610.651 395.872 612.448 394.466 614.531 393.477C616.641 392.461 618.971 391.953 621.523 391.953C623.607 391.953 625.482 392.24 627.148 392.812C628.815 393.359 630.234 394.245 631.406 395.469C632.604 396.693 633.516 398.281 634.141 400.234C634.766 402.161 635.078 404.518 635.078 407.305V435H627.812V407.227C627.812 405.013 627.487 403.242 626.836 401.914C626.185 400.56 625.234 399.583 623.984 398.984C622.734 398.359 621.198 398.047 619.375 398.047C617.578 398.047 615.938 398.424 614.453 399.18C612.995 399.935 611.732 400.977 610.664 402.305C609.622 403.633 608.802 405.156 608.203 406.875C607.63 408.568 607.344 410.365 607.344 412.266ZM653.906 392.734V435H646.641V392.734H653.906ZM646.094 381.523C646.094 380.352 646.445 379.362 647.148 378.555C647.878 377.747 648.945 377.344 650.352 377.344C651.732 377.344 652.786 377.747 653.516 378.555C654.271 379.362 654.648 380.352 654.648 381.523C654.648 382.643 654.271 383.607 653.516 384.414C652.786 385.195 651.732 385.586 650.352 385.586C648.945 385.586 647.878 385.195 647.148 384.414C646.445 383.607 646.094 382.643 646.094 381.523ZM683.203 392.734V398.281H660.352V392.734H683.203ZM668.086 382.461H675.312V424.531C675.312 425.964 675.534 427.044 675.977 427.773C676.419 428.503 676.992 428.984 677.695 429.219C678.398 429.453 679.154 429.57 679.961 429.57C680.56 429.57 681.185 429.518 681.836 429.414C682.513 429.284 683.021 429.18 683.359 429.102L683.398 435C682.826 435.182 682.07 435.352 681.133 435.508C680.221 435.69 679.115 435.781 677.812 435.781C676.042 435.781 674.414 435.43 672.93 434.727C671.445 434.023 670.26 432.852 669.375 431.211C668.516 429.544 668.086 427.305 668.086 424.492V382.461ZM709.219 435.781C706.276 435.781 703.607 435.286 701.211 434.297C698.841 433.281 696.797 431.862 695.078 430.039C693.385 428.216 692.083 426.055 691.172 423.555C690.26 421.055 689.805 418.32 689.805 415.352V413.711C689.805 410.273 690.312 407.214 691.328 404.531C692.344 401.823 693.724 399.531 695.469 397.656C697.214 395.781 699.193 394.362 701.406 393.398C703.62 392.435 705.911 391.953 708.281 391.953C711.302 391.953 713.906 392.474 716.094 393.516C718.307 394.557 720.117 396.016 721.523 397.891C722.93 399.74 723.971 401.927 724.648 404.453C725.326 406.953 725.664 409.688 725.664 412.656V415.898H694.102V410H718.438V409.453C718.333 407.578 717.943 405.755 717.266 403.984C716.615 402.214 715.573 400.755 714.141 399.609C712.708 398.464 710.755 397.891 708.281 397.891C706.641 397.891 705.13 398.242 703.75 398.945C702.37 399.622 701.185 400.638 700.195 401.992C699.206 403.346 698.438 405 697.891 406.953C697.344 408.906 697.07 411.159 697.07 413.711V415.352C697.07 417.357 697.344 419.245 697.891 421.016C698.464 422.76 699.284 424.297 700.352 425.625C701.445 426.953 702.76 427.995 704.297 428.75C705.859 429.505 707.63 429.883 709.609 429.883C712.161 429.883 714.323 429.362 716.094 428.32C717.865 427.279 719.414 425.885 720.742 424.141L725.117 427.617C724.206 428.997 723.047 430.312 721.641 431.562C720.234 432.812 718.503 433.828 716.445 434.609C714.414 435.391 712.005 435.781 709.219 435.781Z" fill="white"/>
</g>
<defs>
<filter id="filter0_f_56_99" x="-564" y="-290" width="3048" height="3048" filterUnits="userSpaceOnUse" color-interpolation-filters="sRGB">
<feFlood flood-opacity="0" result="BackgroundImageFix"/>
<feBlend mode="normal" in="SourceGraphic" in2="BackgroundImageFix" result="shape"/>
<feGaussianBlur stdDeviation="282" result="effect1_foregroundBlur_56_99"/>
</filter>
<clipPath id="clip0_56_99">
<rect width="1920" height="544" rx="50" fill="white"/>
</clipPath>
</defs>
</svg>
